<mxfile host="app.diagrams.net" modified="2021-11-22T06:37:57.586Z" agent="5.0 (Windows NT 10.0; Win64; x64) AppleWebKit/537.36 (KHTML, like Gecko) Chrome/95.0.4638.69 Safari/537.36" etag="_5c0vdnBfocp3VtYHWlH" version="15.8.3" type="github">
  <diagram id="BUA0HRlFj0ho-YTa5-D7" name="Arttha-Channels-Design">
    <mxGraphModel dx="2413" dy="1802" grid="1" gridSize="10" guides="1" tooltips="1" connect="1" arrows="1" fold="1" page="1" pageScale="1" pageWidth="850" pageHeight="1100" math="0" shadow="0">
      <root>
        <mxCell id="0" />
        <mxCell id="1" parent="0" />
        <mxCell id="KHyrimaxVNSQ2cYE-oOv-25" style="edgeStyle=orthogonalEdgeStyle;rounded=0;orthogonalLoop=1;jettySize=auto;html=1;startArrow=classic;startFill=1;strokeColor=#177517;strokeWidth=3;" parent="1" source="FlPfcCBMd3QxnSBNjy5M-1" edge="1">
          <mxGeometry relative="1" as="geometry">
            <mxPoint x="380" y="74" as="targetPoint" />
          </mxGeometry>
        </mxCell>
        <mxCell id="FlPfcCBMd3QxnSBNjy5M-1" value="" style="sketch=0;html=1;aspect=fixed;strokeColor=none;shadow=0;align=center;verticalAlign=top;fillColor=#3B8DF1;shape=mxgraph.gcp2.cloud_computer" parent="1" vertex="1">
          <mxGeometry x="140" y="30" width="100" height="88" as="geometry" />
        </mxCell>
        <mxCell id="KHyrimaxVNSQ2cYE-oOv-24" style="edgeStyle=orthogonalEdgeStyle;rounded=0;orthogonalLoop=1;jettySize=auto;html=1;startArrow=classic;startFill=1;strokeColor=#177517;strokeWidth=3;" parent="1" source="FlPfcCBMd3QxnSBNjy5M-2" edge="1">
          <mxGeometry relative="1" as="geometry">
            <mxPoint x="380" y="380" as="targetPoint" />
          </mxGeometry>
        </mxCell>
        <mxCell id="FlPfcCBMd3QxnSBNjy5M-2" value="" style="verticalLabelPosition=bottom;verticalAlign=top;html=1;shadow=0;dashed=0;strokeWidth=1;shape=mxgraph.android.phone2;strokeColor=#c0c0c0;" parent="1" vertex="1">
          <mxGeometry x="155" y="310" width="70" height="140" as="geometry" />
        </mxCell>
        <mxCell id="FlPfcCBMd3QxnSBNjy5M-22" style="edgeStyle=orthogonalEdgeStyle;rounded=0;orthogonalLoop=1;jettySize=auto;html=1;strokeColor=#177517;strokeWidth=3;startArrow=classic;startFill=1;" parent="1" source="FlPfcCBMd3QxnSBNjy5M-4" edge="1">
          <mxGeometry relative="1" as="geometry">
            <mxPoint x="380" y="692" as="targetPoint" />
          </mxGeometry>
        </mxCell>
        <mxCell id="FlPfcCBMd3QxnSBNjy5M-4" value="" style="shape=image;html=1;verticalAlign=top;verticalLabelPosition=bottom;labelBackgroundColor=#ffffff;imageAspect=0;aspect=fixed;image=https://cdn4.iconfinder.com/data/icons/OxeSet/Cycle.png" parent="1" vertex="1">
          <mxGeometry x="170" y="660" width="64" height="64" as="geometry" />
        </mxCell>
        <mxCell id="FlPfcCBMd3QxnSBNjy5M-11" style="edgeStyle=orthogonalEdgeStyle;rounded=1;orthogonalLoop=1;jettySize=auto;html=1;entryX=0;entryY=0.5;entryDx=0;entryDy=0;strokeColor=#177517;strokeWidth=3;startArrow=classic;startFill=1;" parent="1" target="FlPfcCBMd3QxnSBNjy5M-8" edge="1">
          <mxGeometry relative="1" as="geometry">
            <mxPoint x="450" y="370" as="sourcePoint" />
            <Array as="points" />
          </mxGeometry>
        </mxCell>
        <mxCell id="FlPfcCBMd3QxnSBNjy5M-5" value="&lt;span&gt;Channels APIS To Process Request/Response as per Channel source&lt;/span&gt;" style="rounded=1;whiteSpace=wrap;html=1;fillColor=#dae8fc;strokeColor=#6c8ebf;strokeWidth=2;rotation=-90;" parent="1" vertex="1">
          <mxGeometry x="86.88" y="350.63" width="658.75" height="67.5" as="geometry" />
        </mxCell>
        <mxCell id="FlPfcCBMd3QxnSBNjy5M-9" style="edgeStyle=orthogonalEdgeStyle;rounded=1;orthogonalLoop=1;jettySize=auto;html=1;strokeWidth=3;strokeColor=#177517;sourcePerimeterSpacing=0;startArrow=classic;startFill=1;" parent="1" target="FlPfcCBMd3QxnSBNjy5M-8" edge="1">
          <mxGeometry relative="1" as="geometry">
            <mxPoint x="460" y="74" as="sourcePoint" />
          </mxGeometry>
        </mxCell>
        <mxCell id="FlPfcCBMd3QxnSBNjy5M-10" style="edgeStyle=orthogonalEdgeStyle;rounded=1;orthogonalLoop=1;jettySize=auto;html=1;entryX=0.5;entryY=1;entryDx=0;entryDy=0;strokeColor=#177517;strokeWidth=3;startArrow=classic;startFill=1;exitX=0.035;exitY=1.044;exitDx=0;exitDy=0;exitPerimeter=0;" parent="1" source="FlPfcCBMd3QxnSBNjy5M-5" target="FlPfcCBMd3QxnSBNjy5M-8" edge="1">
          <mxGeometry relative="1" as="geometry">
            <mxPoint x="750" y="530" as="targetPoint" />
            <mxPoint x="480" y="690" as="sourcePoint" />
            <Array as="points">
              <mxPoint x="750" y="691" />
            </Array>
          </mxGeometry>
        </mxCell>
        <mxCell id="KHyrimaxVNSQ2cYE-oOv-15" style="edgeStyle=orthogonalEdgeStyle;rounded=0;orthogonalLoop=1;jettySize=auto;html=1;startArrow=classic;startFill=1;strokeColor=#177517;strokeWidth=3;" parent="1" source="FlPfcCBMd3QxnSBNjy5M-8" target="KHyrimaxVNSQ2cYE-oOv-8" edge="1">
          <mxGeometry relative="1" as="geometry">
            <Array as="points">
              <mxPoint x="880" y="370" />
              <mxPoint x="880" y="410" />
            </Array>
          </mxGeometry>
        </mxCell>
        <mxCell id="KHyrimaxVNSQ2cYE-oOv-16" style="edgeStyle=orthogonalEdgeStyle;rounded=0;orthogonalLoop=1;jettySize=auto;html=1;startArrow=classic;startFill=1;strokeColor=#177517;strokeWidth=3;" parent="1" source="FlPfcCBMd3QxnSBNjy5M-8" target="KHyrimaxVNSQ2cYE-oOv-5" edge="1">
          <mxGeometry relative="1" as="geometry">
            <Array as="points">
              <mxPoint x="880" y="370" />
              <mxPoint x="880" y="160" />
            </Array>
          </mxGeometry>
        </mxCell>
        <mxCell id="KHyrimaxVNSQ2cYE-oOv-17" style="edgeStyle=orthogonalEdgeStyle;rounded=0;orthogonalLoop=1;jettySize=auto;html=1;startArrow=classic;startFill=1;strokeColor=#177517;strokeWidth=3;" parent="1" source="FlPfcCBMd3QxnSBNjy5M-8" target="KHyrimaxVNSQ2cYE-oOv-3" edge="1">
          <mxGeometry relative="1" as="geometry">
            <Array as="points">
              <mxPoint x="880" y="370" />
              <mxPoint x="880" y="280" />
            </Array>
          </mxGeometry>
        </mxCell>
        <mxCell id="KHyrimaxVNSQ2cYE-oOv-18" style="edgeStyle=orthogonalEdgeStyle;rounded=0;orthogonalLoop=1;jettySize=auto;html=1;startArrow=classic;startFill=1;strokeColor=#177517;strokeWidth=3;" parent="1" source="FlPfcCBMd3QxnSBNjy5M-8" target="KHyrimaxVNSQ2cYE-oOv-12" edge="1">
          <mxGeometry relative="1" as="geometry">
            <Array as="points">
              <mxPoint x="880" y="370" />
              <mxPoint x="880" y="525" />
            </Array>
          </mxGeometry>
        </mxCell>
        <mxCell id="FlPfcCBMd3QxnSBNjy5M-8" value="Core Services" style="whiteSpace=wrap;html=1;aspect=fixed;fillColor=#fff2cc;strokeColor=#d6b656;strokeWidth=2;" parent="1" vertex="1">
          <mxGeometry x="710" y="330" width="80" height="80" as="geometry" />
        </mxCell>
        <mxCell id="FlPfcCBMd3QxnSBNjy5M-20" value="&lt;span&gt;Business Logic&lt;/span&gt;" style="ellipse;shape=cloud;whiteSpace=wrap;html=1;fillColor=#f8cecc;strokeColor=#b85450;" parent="1" vertex="1">
          <mxGeometry x="750" y="380" width="75" height="60" as="geometry" />
        </mxCell>
        <mxCell id="FlPfcCBMd3QxnSBNjy5M-32" value="Web Data" style="swimlane;fontStyle=0;childLayout=stackLayout;horizontal=1;startSize=30;horizontalStack=0;resizeParent=1;resizeParentMax=0;resizeLast=0;collapsible=1;marginBottom=0;strokeWidth=2;strokeColor=#0000CC;" parent="1" vertex="1">
          <mxGeometry x="-25" y="30" width="120" height="210" as="geometry">
            <mxRectangle x="210" y="470" width="50" height="30" as="alternateBounds" />
          </mxGeometry>
        </mxCell>
        <mxCell id="FlPfcCBMd3QxnSBNjy5M-33" value="Name: John Smith" style="text;strokeColor=none;fillColor=none;align=left;verticalAlign=middle;spacingLeft=4;spacingRight=4;overflow=hidden;points=[[0,0.5],[1,0.5]];portConstraint=eastwest;rotatable=0;" parent="FlPfcCBMd3QxnSBNjy5M-32" vertex="1">
          <mxGeometry y="30" width="120" height="30" as="geometry" />
        </mxCell>
        <mxCell id="FlPfcCBMd3QxnSBNjy5M-34" value="DOB:01/10/2012" style="text;strokeColor=none;fillColor=none;align=left;verticalAlign=middle;spacingLeft=4;spacingRight=4;overflow=hidden;points=[[0,0.5],[1,0.5]];portConstraint=eastwest;rotatable=0;" parent="FlPfcCBMd3QxnSBNjy5M-32" vertex="1">
          <mxGeometry y="60" width="120" height="30" as="geometry" />
        </mxCell>
        <mxCell id="FlPfcCBMd3QxnSBNjy5M-35" value="Type: Arttha Web&#xa;" style="text;strokeColor=none;fillColor=none;align=left;verticalAlign=middle;spacingLeft=4;spacingRight=4;overflow=hidden;points=[[0,0.5],[1,0.5]];portConstraint=eastwest;rotatable=0;" parent="FlPfcCBMd3QxnSBNjy5M-32" vertex="1">
          <mxGeometry y="90" width="120" height="30" as="geometry" />
        </mxCell>
        <mxCell id="FlPfcCBMd3QxnSBNjy5M-37" value="Email: abc123@x.com&#xa;" style="text;strokeColor=none;fillColor=none;align=left;verticalAlign=middle;spacingLeft=4;spacingRight=4;overflow=hidden;points=[[0,0.5],[1,0.5]];portConstraint=eastwest;rotatable=0;" parent="FlPfcCBMd3QxnSBNjy5M-32" vertex="1">
          <mxGeometry y="120" width="120" height="30" as="geometry" />
        </mxCell>
        <mxCell id="FlPfcCBMd3QxnSBNjy5M-38" value="City: Delhi" style="text;strokeColor=none;fillColor=none;align=left;verticalAlign=middle;spacingLeft=4;spacingRight=4;overflow=hidden;points=[[0,0.5],[1,0.5]];portConstraint=eastwest;rotatable=0;" parent="FlPfcCBMd3QxnSBNjy5M-32" vertex="1">
          <mxGeometry y="150" width="120" height="30" as="geometry" />
        </mxCell>
        <mxCell id="FlPfcCBMd3QxnSBNjy5M-39" value="ID Proof: Abc" style="text;strokeColor=none;fillColor=none;align=left;verticalAlign=middle;spacingLeft=4;spacingRight=4;overflow=hidden;points=[[0,0.5],[1,0.5]];portConstraint=eastwest;rotatable=0;" parent="FlPfcCBMd3QxnSBNjy5M-32" vertex="1">
          <mxGeometry y="180" width="120" height="30" as="geometry" />
        </mxCell>
        <mxCell id="FlPfcCBMd3QxnSBNjy5M-40" value="Mobile Data" style="swimlane;fontStyle=0;childLayout=stackLayout;horizontal=1;startSize=30;horizontalStack=0;resizeParent=1;resizeParentMax=0;resizeLast=0;collapsible=1;marginBottom=0;strokeWidth=2;strokeColor=#0000CC;" parent="1" vertex="1">
          <mxGeometry x="-20" y="300" width="120" height="150" as="geometry">
            <mxRectangle x="210" y="470" width="50" height="30" as="alternateBounds" />
          </mxGeometry>
        </mxCell>
        <mxCell id="FlPfcCBMd3QxnSBNjy5M-41" value="Name: John Smith" style="text;strokeColor=none;fillColor=none;align=left;verticalAlign=middle;spacingLeft=4;spacingRight=4;overflow=hidden;points=[[0,0.5],[1,0.5]];portConstraint=eastwest;rotatable=0;" parent="FlPfcCBMd3QxnSBNjy5M-40" vertex="1">
          <mxGeometry y="30" width="120" height="30" as="geometry" />
        </mxCell>
        <mxCell id="FlPfcCBMd3QxnSBNjy5M-42" value="DOB:01/10/2012" style="text;strokeColor=none;fillColor=none;align=left;verticalAlign=middle;spacingLeft=4;spacingRight=4;overflow=hidden;points=[[0,0.5],[1,0.5]];portConstraint=eastwest;rotatable=0;" parent="FlPfcCBMd3QxnSBNjy5M-40" vertex="1">
          <mxGeometry y="60" width="120" height="30" as="geometry" />
        </mxCell>
        <mxCell id="FlPfcCBMd3QxnSBNjy5M-43" value="Type: Arttha Web&#xa;" style="text;strokeColor=none;fillColor=none;align=left;verticalAlign=middle;spacingLeft=4;spacingRight=4;overflow=hidden;points=[[0,0.5],[1,0.5]];portConstraint=eastwest;rotatable=0;" parent="FlPfcCBMd3QxnSBNjy5M-40" vertex="1">
          <mxGeometry y="90" width="120" height="30" as="geometry" />
        </mxCell>
        <mxCell id="FlPfcCBMd3QxnSBNjy5M-44" value="Email: abc123@x.com&#xa;" style="text;strokeColor=none;fillColor=none;align=left;verticalAlign=middle;spacingLeft=4;spacingRight=4;overflow=hidden;points=[[0,0.5],[1,0.5]];portConstraint=eastwest;rotatable=0;" parent="FlPfcCBMd3QxnSBNjy5M-40" vertex="1">
          <mxGeometry y="120" width="120" height="30" as="geometry" />
        </mxCell>
        <mxCell id="FlPfcCBMd3QxnSBNjy5M-47" value="Other Channels Data" style="swimlane;fontStyle=0;childLayout=stackLayout;horizontal=1;startSize=30;horizontalStack=0;resizeParent=1;resizeParentMax=0;resizeLast=0;collapsible=1;marginBottom=0;strokeWidth=2;strokeColor=#0000CC;" parent="1" vertex="1">
          <mxGeometry x="-30" y="500" width="130" height="330" as="geometry">
            <mxRectangle x="210" y="470" width="50" height="30" as="alternateBounds" />
          </mxGeometry>
        </mxCell>
        <mxCell id="FlPfcCBMd3QxnSBNjy5M-48" value="Name: John Smith" style="text;strokeColor=none;fillColor=none;align=left;verticalAlign=middle;spacingLeft=4;spacingRight=4;overflow=hidden;points=[[0,0.5],[1,0.5]];portConstraint=eastwest;rotatable=0;" parent="FlPfcCBMd3QxnSBNjy5M-47" vertex="1">
          <mxGeometry y="30" width="130" height="30" as="geometry" />
        </mxCell>
        <mxCell id="FlPfcCBMd3QxnSBNjy5M-49" value="DOB:01/10/2012" style="text;strokeColor=none;fillColor=none;align=left;verticalAlign=middle;spacingLeft=4;spacingRight=4;overflow=hidden;points=[[0,0.5],[1,0.5]];portConstraint=eastwest;rotatable=0;" parent="FlPfcCBMd3QxnSBNjy5M-47" vertex="1">
          <mxGeometry y="60" width="130" height="30" as="geometry" />
        </mxCell>
        <mxCell id="FlPfcCBMd3QxnSBNjy5M-50" value="Type: Arttha Web&#xa;" style="text;strokeColor=none;fillColor=none;align=left;verticalAlign=middle;spacingLeft=4;spacingRight=4;overflow=hidden;points=[[0,0.5],[1,0.5]];portConstraint=eastwest;rotatable=0;" parent="FlPfcCBMd3QxnSBNjy5M-47" vertex="1">
          <mxGeometry y="90" width="130" height="30" as="geometry" />
        </mxCell>
        <mxCell id="FlPfcCBMd3QxnSBNjy5M-51" value="Email: abc123@x.com&#xa;" style="text;strokeColor=none;fillColor=none;align=left;verticalAlign=middle;spacingLeft=4;spacingRight=4;overflow=hidden;points=[[0,0.5],[1,0.5]];portConstraint=eastwest;rotatable=0;" parent="FlPfcCBMd3QxnSBNjy5M-47" vertex="1">
          <mxGeometry y="120" width="130" height="30" as="geometry" />
        </mxCell>
        <mxCell id="FlPfcCBMd3QxnSBNjy5M-52" value="City: Delhi" style="text;strokeColor=none;fillColor=none;align=left;verticalAlign=middle;spacingLeft=4;spacingRight=4;overflow=hidden;points=[[0,0.5],[1,0.5]];portConstraint=eastwest;rotatable=0;" parent="FlPfcCBMd3QxnSBNjy5M-47" vertex="1">
          <mxGeometry y="150" width="130" height="30" as="geometry" />
        </mxCell>
        <mxCell id="FlPfcCBMd3QxnSBNjy5M-53" value="ID Proof: Abc" style="text;strokeColor=none;fillColor=none;align=left;verticalAlign=middle;spacingLeft=4;spacingRight=4;overflow=hidden;points=[[0,0.5],[1,0.5]];portConstraint=eastwest;rotatable=0;" parent="FlPfcCBMd3QxnSBNjy5M-47" vertex="1">
          <mxGeometry y="180" width="130" height="30" as="geometry" />
        </mxCell>
        <mxCell id="FlPfcCBMd3QxnSBNjy5M-54" value="Country: XYZ" style="text;strokeColor=none;fillColor=none;align=left;verticalAlign=middle;spacingLeft=4;spacingRight=4;overflow=hidden;points=[[0,0.5],[1,0.5]];portConstraint=eastwest;rotatable=0;" parent="FlPfcCBMd3QxnSBNjy5M-47" vertex="1">
          <mxGeometry y="210" width="130" height="30" as="geometry" />
        </mxCell>
        <mxCell id="FlPfcCBMd3QxnSBNjy5M-55" value="Department: Oil Refinery" style="text;strokeColor=none;fillColor=none;align=left;verticalAlign=middle;spacingLeft=4;spacingRight=4;overflow=hidden;points=[[0,0.5],[1,0.5]];portConstraint=eastwest;rotatable=0;" parent="FlPfcCBMd3QxnSBNjy5M-47" vertex="1">
          <mxGeometry y="240" width="130" height="30" as="geometry" />
        </mxCell>
        <mxCell id="FlPfcCBMd3QxnSBNjy5M-56" value="Supervisor Id: 123456" style="text;strokeColor=none;fillColor=none;align=left;verticalAlign=middle;spacingLeft=4;spacingRight=4;overflow=hidden;points=[[0,0.5],[1,0.5]];portConstraint=eastwest;rotatable=0;" parent="FlPfcCBMd3QxnSBNjy5M-47" vertex="1">
          <mxGeometry y="270" width="130" height="30" as="geometry" />
        </mxCell>
        <mxCell id="FlPfcCBMd3QxnSBNjy5M-57" value="Joining Date: 30/10/2020" style="text;strokeColor=none;fillColor=none;align=left;verticalAlign=middle;spacingLeft=4;spacingRight=4;overflow=hidden;points=[[0,0.5],[1,0.5]];portConstraint=eastwest;rotatable=0;" parent="FlPfcCBMd3QxnSBNjy5M-47" vertex="1">
          <mxGeometry y="300" width="130" height="30" as="geometry" />
        </mxCell>
        <mxCell id="FlPfcCBMd3QxnSBNjy5M-61" value="&lt;h3&gt;&lt;b&gt;Arttha Channels Interface&lt;/b&gt;&lt;/h3&gt;" style="text;html=1;strokeColor=none;fillColor=none;align=center;verticalAlign=middle;whiteSpace=wrap;rounded=0;dashed=1;sketch=0;fontColor=#46495D;" parent="1" vertex="1">
          <mxGeometry x="20" width="200" height="30" as="geometry" />
        </mxCell>
        <mxCell id="FlPfcCBMd3QxnSBNjy5M-66" value="" style="rounded=1;whiteSpace=wrap;html=1;dashed=1;sketch=0;fontColor=#46495D;strokeColor=default;strokeWidth=1;fillColor=none;" parent="1" vertex="1">
          <mxGeometry x="320" width="250" height="850" as="geometry" />
        </mxCell>
        <mxCell id="FlPfcCBMd3QxnSBNjy5M-67" value="&lt;h3&gt;Channels MiddleWare Apis&lt;/h3&gt;" style="text;html=1;strokeColor=none;fillColor=none;align=center;verticalAlign=middle;whiteSpace=wrap;rounded=0;dashed=1;sketch=0;fontColor=#46495D;" parent="1" vertex="1">
          <mxGeometry x="330" y="10" width="190" height="30" as="geometry" />
        </mxCell>
        <mxCell id="FlPfcCBMd3QxnSBNjy5M-68" value="" style="rounded=1;whiteSpace=wrap;html=1;dashed=1;sketch=0;fontColor=#46495D;strokeColor=default;strokeWidth=1;fillColor=none;" parent="1" vertex="1">
          <mxGeometry x="635" width="205" height="850" as="geometry" />
        </mxCell>
        <mxCell id="FlPfcCBMd3QxnSBNjy5M-69" value="&lt;h3&gt;Core Apis&lt;/h3&gt;" style="text;html=1;strokeColor=none;fillColor=none;align=center;verticalAlign=middle;whiteSpace=wrap;rounded=0;dashed=1;sketch=0;fontColor=#46495D;" parent="1" vertex="1">
          <mxGeometry x="680" y="10" width="90" height="30" as="geometry" />
        </mxCell>
        <mxCell id="KHyrimaxVNSQ2cYE-oOv-3" value="V6.1" style="ellipse;whiteSpace=wrap;html=1;strokeColor=#d6b656;strokeWidth=2;fillColor=#fff2cc;" parent="1" vertex="1">
          <mxGeometry x="970" y="250" width="120" height="60" as="geometry" />
        </mxCell>
        <mxCell id="KHyrimaxVNSQ2cYE-oOv-5" value="V6.0" style="ellipse;whiteSpace=wrap;html=1;strokeColor=#d6b656;strokeWidth=2;fillColor=#fff2cc;" parent="1" vertex="1">
          <mxGeometry x="970" y="130" width="120" height="60" as="geometry" />
        </mxCell>
        <mxCell id="KHyrimaxVNSQ2cYE-oOv-8" value="V6.2" style="ellipse;whiteSpace=wrap;html=1;strokeColor=#d6b656;strokeWidth=2;fillColor=#fff2cc;" parent="1" vertex="1">
          <mxGeometry x="980" y="380" width="120" height="60" as="geometry" />
        </mxCell>
        <mxCell id="KHyrimaxVNSQ2cYE-oOv-12" value="V6.n" style="ellipse;whiteSpace=wrap;html=1;strokeColor=#d6b656;strokeWidth=2;fillColor=#fff2cc;" parent="1" vertex="1">
          <mxGeometry x="980" y="495" width="120" height="60" as="geometry" />
        </mxCell>
        <mxCell id="KHyrimaxVNSQ2cYE-oOv-19" value="" style="rounded=1;whiteSpace=wrap;html=1;dashed=1;sketch=0;fontColor=#46495D;strokeColor=default;strokeWidth=1;fillColor=none;" parent="1" vertex="1">
          <mxGeometry x="860" width="260" height="850" as="geometry" />
        </mxCell>
        <mxCell id="KHyrimaxVNSQ2cYE-oOv-21" value="&lt;h3&gt;Core Apis Versions&lt;/h3&gt;" style="text;html=1;strokeColor=none;fillColor=none;align=center;verticalAlign=middle;whiteSpace=wrap;rounded=0;dashed=1;sketch=0;fontColor=#46495D;" parent="1" vertex="1">
          <mxGeometry x="917.5" y="10" width="145" height="30" as="geometry" />
        </mxCell>
        <mxCell id="KHyrimaxVNSQ2cYE-oOv-22" value="Channel Specific Logic for&lt;br&gt;Request/Response" style="ellipse;shape=cloud;whiteSpace=wrap;html=1;fillColor=#f8cecc;strokeColor=#b85450;" parent="1" vertex="1">
          <mxGeometry x="380" y="120" width="180" height="80" as="geometry" />
        </mxCell>
        <mxCell id="FlPfcCBMd3QxnSBNjy5M-64" value="" style="rounded=1;whiteSpace=wrap;html=1;dashed=1;sketch=0;fontColor=#46495D;strokeColor=default;strokeWidth=1;fillColor=none;" parent="1" vertex="1">
          <mxGeometry x="-90" width="370" height="850" as="geometry" />
        </mxCell>
      </root>
    </mxGraphModel>
  </diagram>
</mxfile>
